<?xml version="1.0" encoding="utf-8"?>
<!-- Generator: Adobe Illustrator 21.0.0, SVG Export Plug-In . SVG Version: 6.00 Build 0)  -->
<svg version="1.1" id="Layer_1" xmlns="http://www.w3.org/2000/svg" xmlns:xlink="http://www.w3.org/1999/xlink" x="0px" y="0px"
	 viewBox="0 0 512 512" style="enable-background:new 0 0 512 512;" xml:space="preserve">
<style type="text/css">
	.st0{opacity:0.66;}
	.st1{fill:#01A0C6;}
	.st2{fill:#FF0000;}
</style>
<g id="Layer_3" class="st0">
	<path class="st1" d="M484.8,215.8c-34.7-18.2-67.7,6.6-67.7,6.6c-35.1-30.1-102-40.7-132.3-44l22.6-105.5l73.9,16.4
		c2.6,17.4,17.7,30.8,35.9,30.8c20,0,36.3-16.2,36.3-36.3s-16.3-36.3-36.3-36.3c-12.9,0-24.2,6.7-30.6,16.9l-94.1-16.9l-30,130.6
		c-29.2,3.1-98.5,13.5-134.5,44.3c0,0-33-24.8-67.7-6.6s-19,57-19,57s11.6,24,28.1,34.7c0,0-12.4,83.5,82.6,128.9
		c0,0,63.5,32.1,120.5,29.7h0.2c57,2.4,120.5-29.7,120.5-29.7c95-45.4,82.6-128.9,82.6-128.9c16.5-10.7,28.1-34.7,28.1-34.7
		S519.5,234,484.8,215.8z M155.2,295.1c0-19.7,16-35.6,35.6-35.6c19.7,0,35.6,16,35.6,35.6c0,19.7-16,35.6-35.6,35.6
		C171.1,330.7,155.2,314.8,155.2,295.1z M356.4,393.4c-15.6,18.7-115.2,41.5-160.5,5.4c0,0-27-16.4,0-22.4c0,0,85,50.3,151.8,0
		C347.7,376.5,372,374.7,356.4,393.4z M352.7,330.7c-19.7,0-35.6-16-35.6-35.6c0-19.7,16-35.6,35.6-35.6c19.7,0,35.6,16,35.6,35.6
		C388.3,314.8,372.4,330.7,352.7,330.7z"/>
</g>
<g id="Layer_4" class="st0">
	<path class="st2" d="M450,209.2c-34.7-18.2-67.7,6.6-67.7,6.6c-35.1-30.1-102-40.7-132.3-44l22.6-105.5l73.9,16.4
		c2.6,17.4,17.7,30.8,35.9,30.8c20,0,36.3-16.2,36.3-36.3s-16.3-36.3-36.3-36.3c-12.9,0-24.2,6.7-30.6,16.9l-94.1-16.9l-30,130.6
		c-29.2,3.1-98.5,13.5-134.5,44.3c0,0-33-24.8-67.7-6.6s-19,57-19,57s11.6,24,28.1,34.7c0,0-12.4,83.5,82.6,128.9
		c0,0,63.5,32.1,120.5,29.7h0.2c57,2.4,120.5-29.7,120.5-29.7c95-45.4,82.6-128.9,82.6-128.9c16.5-10.7,28.1-34.7,28.1-34.7
		S484.7,227.4,450,209.2z M120.3,288.5c0-19.7,16-35.6,35.6-35.6c19.7,0,35.6,16,35.6,35.6c0,19.7-16,35.6-35.6,35.6
		S120.3,308.2,120.3,288.5z M321.6,386.8c-15.6,18.7-115.2,41.5-160.5,5.4c0,0-27-16.4,0-22.4c0,0,85,50.3,151.8,0
		C312.9,369.9,337.1,368.1,321.6,386.8z M317.8,324.1c-19.7,0-35.6-16-35.6-35.6c0-19.7,16-35.6,35.6-35.6c19.7,0,35.6,16,35.6,35.6
		C353.5,308.2,337.5,324.1,317.8,324.1z"/>
</g>
<g id="Layer_2">
	<path d="M469.2,213.2c-34.7-18.2-67.7,6.6-67.7,6.6c-35.1-30.1-102-40.7-132.3-44l22.6-105.5l73.9,16.4
		c2.6,17.4,17.7,30.8,35.9,30.8c20,0,36.3-16.2,36.3-36.3s-16.3-36.3-36.3-36.3c-12.9,0-24.2,6.7-30.6,16.9l-94.1-16.9l-30,130.6
		c-29.2,3.1-98.5,13.5-134.5,44.3c0,0-33-24.8-67.7-6.6s-19,57-19,57s11.6,24,28.1,34.7c0,0-12.4,83.5,82.6,128.9
		c0,0,63.5,32.1,120.5,29.7h0.2c57,2.4,120.5-29.7,120.5-29.7c95-45.4,82.6-128.9,82.6-128.9c16.5-10.7,28.1-34.7,28.1-34.7
		S503.9,231.4,469.2,213.2z M139.6,292.5c0-19.7,16-35.6,35.6-35.6c19.7,0,35.6,16,35.6,35.6c0,19.7-16,35.6-35.6,35.6
		C155.5,328.2,139.6,312.2,139.6,292.5z M340.8,390.8c-15.6,18.7-115.2,41.5-160.5,5.4c0,0-27-16.4,0-22.4c0,0,85,50.3,151.8,0
		C332.1,373.9,356.4,372.1,340.8,390.8z M337.1,328.2c-19.7,0-35.6-16-35.6-35.6c0-19.7,16-35.6,35.6-35.6c19.7,0,35.6,16,35.6,35.6
		S356.8,328.2,337.1,328.2z"/>
</g>
</svg>
